<?xml version="1.0" standalone="no"?>
<!DOCTYPE svg PUBLIC "-//W3C//DTD SVG 20010904//EN"
 "http://www.w3.org/TR/2001/REC-SVG-20010904/DTD/svg10.dtd">
<svg version="1.0" xmlns="http://www.w3.org/2000/svg"
 width="256.000000pt" height="256.000000pt" viewBox="0 0 256.000000 256.000000"
 preserveAspectRatio="xMidYMid meet">

<g transform="translate(0.000000,256.000000) scale(0.100000,-0.100000)"
fill="#fff" stroke="none">
<path d="M1450 2159 c-227 -64 -507 -168 -628 -235 -75 -42 -120 -102 -248
-331 -47 -84 -137 -226 -199 -315 -128 -183 -200 -314 -210 -383 -10 -64 9
-123 65 -203 57 -81 270 -288 319 -311 30 -13 72 -16 236 -15 301 1 362 11
568 91 197 77 199 77 431 49 138 -17 138 -17 182 5 55 26 127 105 211 232 120
181 223 413 223 500 -1 98 -79 292 -183 450 -123 188 -369 424 -508 487 -61
27 -93 25 -259 -21z m287 -85 c99 -66 327 -297 398 -404 77 -116 149 -262 172
-352 15 -57 16 -75 5 -125 -27 -128 -213 -452 -327 -569 -63 -64 -26 -60 -284
-28 -158 20 -151 21 -378 -66 -176 -68 -222 -76 -493 -87 -254 -9 -235 -16
-398 145 -209 207 -225 253 -141 411 22 42 91 149 153 238 62 89 144 218 181
285 81 148 148 253 184 291 35 38 126 84 291 145 292 109 483 164 542 158 20
-2 62 -21 95 -42z"/>
<path d="M841 1528 c-59 -29 -75 -55 -118 -183 -31 -95 -35 -116 -24 -129 16
-19 45 -21 59 -3 6 7 25 56 42 109 32 102 43 119 91 143 20 11 29 23 29 40 0
39 -30 48 -79 23z"/>
<path d="M1770 865 l-64 -64 -104 -3 c-87 -3 -107 -6 -116 -20 -8 -13 -8 -23
0 -35 9 -15 29 -18 124 -21 127 -3 130 -2 230 100 51 51 60 74 38 96 -22 22
-43 12 -108 -53z"/>
</g>
</svg>
